HIERARCHY
ROOT Hip
{
  OFFSET 0 0 0
  CHANNELS 6 Xposition Yposition Zposition Zrotation Xrotation Yrotation
  JOINT RHip
  {
    OFFSET 10.565771 -1.259305 0.341481
    CHANNELS 3 Zrotation Xrotation Yrotation
    JOINT RKnee
    {
      OFFSET -2.502417 17.004666 -39.226809
      CHANNELS 3 Zrotation Xrotation Yrotation
      JOINT RAnkle
      {
        OFFSET -1.921045 27.958740 -33.210692
        CHANNELS 3 Zrotation Xrotation Yrotation
        End Site
        {
          OFFSET 0 10 0
        }
      }
    }
  }
  JOINT LHip
  {
    OFFSET -10.283154 5.440871 0.103563
    CHANNELS 3 Zrotation Xrotation Yrotation
    JOINT LKnee
    {
      OFFSET 3.761816 17.208802 -38.645604
      CHANNELS 3 Zrotation Xrotation Yrotation
      JOINT LAnkle
      {
        OFFSET 1.860620 28.908190 -33.334544
        CHANNELS 3 Zrotation Xrotation Yrotation
        End Site
        {
          OFFSET 0 10 0
        }
      }
    }
  }
  JOINT Spine
  {
    OFFSET -0.455591 -3.996097 22.968519
    CHANNELS 3 Zrotation Xrotation Yrotation
    JOINT Thorax
    {
      OFFSET 0.371191 3.256535 26.166373
      CHANNELS 3 Zrotation Xrotation Yrotation
      JOINT Neck
      {
        OFFSET -0.061816 -9.320724 13.878393
        CHANNELS 3 Zrotation Xrotation Yrotation
        JOINT Head
        {
          OFFSET 0.141699 13.382026 3.880489
          CHANNELS 3 Zrotation Xrotation Yrotation
          End Site
          {
            OFFSET 0 10 0
          }
        }
      }
      JOINT LShoulder
      {
        OFFSET -14.921362 1.643501 -3.034043
        CHANNELS 3 Zrotation Xrotation Yrotation
        JOINT LElbow
        {
          OFFSET -24.114257 6.545542 -0.403833
          CHANNELS 3 Zrotation Xrotation Yrotation
          JOINT LWrist
          {
            OFFSET -20.923537 -13.627711 2.670360
            CHANNELS 3 Zrotation Xrotation Yrotation
            End Site
            {
              OFFSET 0 10 0
            }
          }
        }
      }
      JOINT RShoulder
      {
        OFFSET 15.032934 -7.543689 -2.623725
        CHANNELS 3 Zrotation Xrotation Yrotation
        JOINT RElbow
        {
          OFFSET 23.188525 -13.099534 -1.673174
          CHANNELS 3 Zrotation Xrotation Yrotation
          JOINT RWrist
          {
            OFFSET 23.706716 -18.975526 0.652087
            CHANNELS 3 Zrotation Xrotation Yrotation
            End Site
            {
              OFFSET 0 10 0
            }
          }
        }
      }
    }
  }
}

MOTION
Frames: 10
Frame Time: 0.008333333333333333
-0.000000 0.000000 73.772460 0.000000 0.000000 0.000000 -94.248928 -0.251545 -3.381861 17.842447 -64.893752 -16.249907 5.904126 -52.900718 -4.715146 66.732009 -0.576894 -1.341329 -24.576976 -62.395479 22.062135 -7.537794 -48.787688 5.684697 136.998112 -75.922516 42.131524 -134.668159 -81.912296 -45.045487 -163.472705 -61.432951 -14.606792 -0.411799 26.185993 -0.181724 78.472531 -2.538383 -12.251722 32.875519 -53.457363 -27.441273 129.576156 58.586641 -45.915906 -95.297876 1.071174 11.398105 -49.128314 -52.964569 42.690329 -157.358685 49.683211 17.642462
-0.000000 0.000000 73.883009 0.000000 0.000000 0.000000 -94.251725 -0.247885 -3.330565 18.435565 -65.310273 -16.850085 6.100057 -52.994936 -4.878067 66.908759 -0.563037 -1.320326 -24.861496 -62.501189 22.343489 -7.500417 -48.948373 5.670149 136.826903 -76.040047 42.316914 -132.663076 -81.837940 -47.046109 -164.420227 -61.301329 -13.743216 -0.339786 26.026418 -0.149095 78.549636 -2.526695 -12.278867 33.036235 -53.523595 -27.605656 127.627005 58.550629 -47.899319 -95.494244 1.113768 11.424529 -49.018759 -53.230965 42.679708 -158.096838 49.930871 17.102344
-0.000000 0.000000 73.993140 0.000000 0.000000 0.000000 -94.362547 -0.248018 -3.247572 18.952093 -65.939774 -17.409222 6.018771 -53.061077 -4.817055 66.978369 -0.533969 -1.256413 -25.640866 -62.785831 23.115839 -7.541913 -48.931109 5.700189 136.665085 -76.165140 42.493781 -129.430034 -81.581611 -50.265156 -164.293477 -60.951458 -13.811499 -0.379937 25.802229 -0.165376 78.613352 -2.522384 -12.326868 32.761986 -53.760988 -27.430852 127.077286 58.533129 -48.460400 -95.667152 1.152576 11.458661 -49.429164 -53.360905 43.141816 -158.324780 50.253042 16.992508
-0.000000 0.000000 73.918432 0.000000 0.000000 0.000000 -94.542631 -0.260020 -3.269172 18.737080 -65.594774 -17.165587 5.793714 -52.955840 -4.630098 66.762706 -0.548471 -1.277150 -25.563811 -62.524713 22.995929 -7.488864 -48.787258 5.647576 137.097450 -76.354637 42.085483 -129.249909 -81.350005 -50.428588 -164.572698 -61.172704 -13.591099 -0.393594 25.738149 -0.170924 78.459927 -2.547417 -12.280594 32.162275 -53.834957 -26.914846 122.807715 58.072348 -52.781344 -95.752406 1.174686 11.503003 -48.568076 -53.562395 42.349376 -157.771256 51.238913 17.675622
-0.000000 0.000000 73.827392 0.000000 0.000000 0.000000 -94.177633 -0.237337 -3.245798 18.026462 -65.500712 -16.495640 5.741278 -52.865092 -4.582624 66.858476 -0.537954 -1.258467 -25.254569 -62.402976 22.687780 -7.567012 -48.699776 5.699218 137.915964 -76.552564 41.292989 -128.767309 -81.086904 -50.892414 -164.332419 -61.270892 -13.817680 -0.326977 25.724950 -0.141926 78.494990 -2.541491 -12.290113 31.770766 -53.868201 -26.574300 119.120835 57.887783 -56.667473 -95.688380 1.167257 11.558265 -47.927851 -53.737573 41.772517 -157.239143 52.310696 18.366774
-0.000000 0.000000 73.826832 0.000000 0.000000 0.000000 -94.170058 -0.232025 -3.179079 18.233323 -65.513144 -16.688622 5.804668 -52.715162 -4.624190 66.929747 -0.516219 -1.211804 -25.470511 -62.475866 22.900632 -7.560025 -48.640169 5.688756 136.586670 -76.426420 42.603775 -130.490850 -81.421357 -49.190543 -163.927270 -61.096333 -14.156413 -0.256572 25.518570 -0.110533 78.654585 -2.525733 -12.387361 30.898260 -53.885744 -25.801486 112.802907 55.980396 -63.104216 -95.677144 1.164638 11.555390 -47.453951 -53.826027 41.332118 -156.068679 53.630034 19.664063
-0.000000 0.000000 73.701221 0.000000 0.000000 0.000000 -93.728136 -0.213947 -3.279806 17.706143 -65.476939 -16.196461 5.830690 -52.605304 -4.638212 67.072883 -0.545368 -1.289128 -24.879649 -62.263988 22.316594 -7.603658 -48.519539 5.711209 137.705471 -76.576448 41.505661 -130.450232 -81.166246 -49.211909 -163.704081 -61.081753 -14.353477 -0.167408 25.645741 -0.072455 78.663297 -2.529652 -12.415460 30.240982 -53.812676 -25.197515 110.097794 54.725175 -65.858209 -95.589973 1.145704 11.546223 -46.394722 -53.906798 40.310936 -155.757421 54.198939 20.063526
-0.000000 0.000000 73.790282 0.000000 0.000000 0.000000 -94.478023 -0.258960 -3.302943 18.328217 -65.551905 -16.781340 5.650865 -52.702851 -4.500636 66.555059 -0.565747 -1.304309 -25.219493 -62.470259 22.667919 -7.716212 -48.577602 5.801350 136.355366 -76.438600 42.836116 -130.786344 -81.348935 -48.889126 -164.089186 -60.994078 -13.998822 -0.266100 25.630198 -0.115105 78.615478 -2.534793 -12.387905 30.098815 -54.111352 -25.155204 111.082358 55.825051 -65.015611 -95.715641 1.166994 11.501734 -46.318962 -54.019900 40.276699 -157.658465 53.330204 18.244327
-0.000000 0.000000 73.720777 0.000000 0.000000 0.000000 -93.659539 -0.221202 -3.454357 18.156145 -65.679260 -16.637853 5.574219 -52.615547 -4.434312 67.491528 -0.617141 -1.488924 -25.761150 -62.302782 23.136364 -7.734064 -48.563617 5.813599 135.710029 -76.631707 43.503625 -125.203766 -80.794284 -54.445610 -164.710058 -60.781938 -13.419739 -0.469486 24.802856 -0.196952 79.117555 -2.435425 -12.463681 30.541686 -54.377594 -25.623111 108.620157 54.870370 -67.609911 -95.763132 1.185260 11.582583 -48.333380 -53.903241 42.238501 -157.886828 53.265511 18.037106
-0.000000 0.000000 73.759180 0.000000 0.000000 0.000000 -93.709385 -0.227256 -3.500950 18.281906 -65.600249 -16.744513 5.527175 -52.618426 -4.396970 67.476529 -0.636135 -1.533590 -26.016992 -62.429186 23.396730 -7.696877 -48.582480 5.787168 133.608719 -76.386139 45.575378 -124.580912 -81.038658 -55.089553 -165.051938 -60.498735 -13.081275 -0.558432 24.504254 -0.231622 79.414312 -2.374168 -12.498095 30.607436 -54.603741 -25.744778 108.299198 55.210919 -68.066418 -95.979657 1.231564 11.595835 -48.670844 -54.002467 42.613092 -156.037391 54.287087 19.842972
